<svg aria-hidden="true" style="width:0;height:0;position:absolute;overflow:hidden" xmlns="http://www.w3.org/2000/svg"><defs><symbol id="icon-user" viewBox="0 0 18 18"><path d="M9 9a3 3 0 1 0 0-6 3 3 0 1 0 0 6Zm0 1.5c-2.003 0-6 1.005-6 3v.75c0 .412.337.75.75.75h10.5c.412 0 .75-.338.75-.75v-.75c0-1.995-3.998-3-6-3Z"/></symbol><symbol id="icon-tel" viewBox="0 0 18 18"><path d="m13.996 11.123-1.838-.21a1.44 1.44 0 0 0-1.187.412l-1.332 1.332a10.888 10.888 0 0 1-4.769-4.77L6.21 6.55a1.44 1.44 0 0 0 .412-1.187l-.21-1.824a1.448 1.448 0 0 0-1.44-1.28H3.72c-.818 0-1.498.68-1.448 1.497.384 6.18 5.327 11.116 11.5 11.5.817.05 1.498-.63 1.498-1.448v-1.252a1.434 1.434 0 0 0-1.274-1.432Z"/></symbol><symbol id="icon-mail" viewBox="0 0 18 18"><path d="M15 3H3c-.825 0-1.492.675-1.492 1.5l-.008 9c0 .825.675 1.5 1.5 1.5h12c.825 0 1.5-.675 1.5-1.5v-9c0-.825-.675-1.5-1.5-1.5Zm-.3 3.188L9.398 9.502a.759.759 0 0 1-.796 0L3.3 6.188a.637.637 0 1 1 .675-1.08L9 8.25l5.025-3.143a.637.637 0 1 1 .675 1.08Z"/></symbol><symbol id="icon-plane" viewBox="0 0 24 24"><path d="M24 0 0 13.5l7.67 2.84L19.5 5.25l-8.998 12.14.007.002-.009-.002V24l4.301-5.018L20.251 21 24 0Z"/></symbol><symbol id="icon-checked" viewBox="0 0 16 15"><path d="M0 2a2 2 0 0 1 2-2h12a2 2 0 0 1 2 2v11a2 2 0 0 1-2 2H2a2 2 0 0 1-2-2V2Z"/><path d="m3.957 7.752-.069-.066-.069.065-.888.842-.076.072.076.073 3.496 3.334.069.066.069-.066 7.504-7.158.076-.073-.076-.072-.882-.841-.069-.066-.069.066-6.553 6.246-2.539-2.422Z" fill="#fff" stroke="#fff" stroke-width=".2"/></symbol><symbol id="icon-checkbox" viewBox="0 0 16 15"><path d="M14.222 1.667v11.666H1.778V1.667h12.444Zm0-1.667H1.778C.8 0 0 .75 0 1.667v11.666C0 14.25.8 15 1.778 15h12.444C15.2 15 16 14.25 16 13.333V1.667C16 .75 15.2 0 14.222 0Z"/></symbol><symbol id="mobile-menu" viewBox="0 0 24 16"><path d="M0 2.667V0h24v2.667H0Zm0 6.666h24V6.667H0v2.666ZM0 16h24v-2.667H0V16Z"/></symbol><symbol id="close-menu" viewBox="0 0 21 21"><path d="M19.667 2.88 17.787 1l-7.454 7.453L2.88 1 1 2.88l7.453 7.453L1 17.787l1.88 1.88 7.453-7.454 7.454 7.454 1.88-1.88-7.454-7.454 7.454-7.453Z"/></symbol><symbol id="car" viewBox="0 0 36 31"><path d="M7.777 1.838C6.565 2.48 5.14 4.761 3.001 9.466.22 15.74.006 16.667.006 22.727c-.071 7.13.428 8.128 3.85 8.128 2.78 0 3.921-1.141 3.921-3.708V25.08l10.195.214 10.124.213.356 2.496c.357 2.709 1.925 3.422 5.419 2.566 1.64-.427 1.71-.641 1.71-7.2 0-6.132-.284-7.415-2.566-13.19C29.451 1.196 28.951.911 18.186.911c-5.49 0-9.268.357-10.409.927Zm20.034 3.137c.998 1.212 3.493 6.274 3.493 6.987 0 .214-6.131.356-13.617.356-7.486 0-13.474-.214-13.332-.57.143-.285.856-1.783 1.569-3.351 2.138-4.705 1.925-4.634 11.834-4.634 7.771 0 9.197.214 10.053 1.212ZM9.203 19.448c0 1.212-.499 1.425-2.78 1.425-1.569 0-3.066-.356-3.28-.713-.784-1.354.428-2.138 3.28-2.138 2.281 0 2.78.213 2.78 1.426Zm23.17 0c0 .712-.926 1.14-2.994 1.283-2.709.214-3.065.071-3.065-1.284 0-1.354.356-1.497 3.065-1.283 2.068.143 2.995.57 2.995 1.284Zm-9.054.142c-.356.998-8.412 1.711-10.337.998-2.353-.927.285-1.853 5.204-1.853 3.993 0 5.347.213 5.133.855Z"/></symbol><symbol id="glass" viewBox="0 0 29 28"><path d="m4.783 27.265 7.882-7.651-4.075-3.96-7.882 7.658a1.595 1.595 0 0 0 0 2.29l1.711 1.663c.653.629 1.723.629 2.364 0ZM10.347 15.827l2.135 2.074 2.433-2.363c3.314 2.235 7.905 1.924 10.859-.945a8.1 8.1 0 0 0 0-11.678c-3.315-3.225-8.701-3.22-12.021 0a8.092 8.092 0 0 0-.973 10.549l-2.433 2.363Zm5.077-11.31c2.404-2.336 6.303-2.336 8.701 0a5.854 5.854 0 0 1 0 8.452c-2.404 2.336-6.302 2.336-8.7 0a5.854 5.854 0 0 1 0-8.452Z"/></symbol><symbol id="favorite" viewBox="0 0 13 18" fill="none"><path d="m6.605 14.773-.105-.048-.105.048L.25 17.609V2c0-.47.173-.917.477-1.244C1.03.43 1.437.25 1.857.25h9.286c.867 0 1.607.761 1.607 1.75v15.61l-6.145-2.837Z" stroke="#943D18" stroke-width=".5"/></symbol><symbol id="cart" viewBox="0 0 12 11"><path d="M.083.054c-.118.099-.11.268.02.364.035.024.201.068.453.116.217.042.434.092.482.112.214.09.407.3.475.523a638.14 638.14 0 0 1 1.261 7.295c0 .026-.048.064-.138.112-.429.221-.694.657-.694 1.143 0 .361.114.637.372.895.473.473 1.167.515 1.704.105.503-.383.632-1.143.289-1.675l-.088-.135h1.74c.958 0 1.741.006 1.741.013a.73.73 0 0 1-.06.103 1.32 1.32 0 0 0-.17 1.011c.108.425.45.782.876.915.215.066.554.064.756-.004.411-.142.705-.438.845-.856.057-.169.057-.576 0-.744a1.322 1.322 0 0 0-.32-.528 1.32 1.32 0 0 0-.525-.33l-.143-.051-2.846-.011-2.846-.01-.125-.723a22.152 22.152 0 0 1-.125-.773l-.002-.049h3c2.064 0 3.034-.006 3.113-.024.346-.07.718-.359.878-.676.055-.11.274-.773.641-1.958.305-.985.557-1.81.557-1.832a.249.249 0 0 0-.108-.188c-.055-.038-.295-.04-4.484-.046-2.437-.003-4.43-.011-4.43-.02 0-.046-.159-.935-.187-1.047-.09-.35-.36-.678-.69-.84C1.154.166 1.051.138.731.074.256-.02.173-.022.083.054Zm10.53 2.615c0 .03-.977 3.153-1.012 3.234a.865.865 0 0 1-.287.341c-.234.156-.02.147-3.376.142l-3.02-.006-.31-1.806-.324-1.868-.011-.06H6.44c2.853 0 4.171.007 4.171.023Zm-7.101 6.31a.794.794 0 0 1 .287 1.278.76.76 0 0 1-.635.248c-.666-.035-.985-.856-.517-1.338a.792.792 0 0 1 .865-.188Zm5.436-.022a.796.796 0 0 1 .338 1.31.71.71 0 0 1-.535.236c-.162.008-.208.002-.32-.044a.788.788 0 0 1-.507-.797.793.793 0 0 1 1.024-.705Z" fill="#fff"/></symbol><symbol id="np" viewBox="0 0 77 75" fill="none"><path fill-rule="evenodd" clip-rule="evenodd" d="M60.924 22.205c.23-.072.532.072.835.47L75.433 36c.8.795.8 2 0 2.59L61.76 52.12c-.303.398-.605.494-.835.374-.23-.12-.375-.47-.375-.976V23.072c0-.494.145-.795.375-.867ZM37.532 0h.968l.932.386 14.074 13.927c.605.795.4 1.398-.605 1.398h-5.833a1.788 1.788 0 0 0-1.803 1.795v10.337c0 1-.81 1.796-2.021 1.796h-10.25a1.799 1.799 0 0 1-1.815-1.796V17.506c0-1-.799-1.795-1.815-1.795h-6.232c-1.005 0-1.21-.603-.606-1.398L36.612.386l.92-.386ZM15.484 21.904c.254.12.411.47.411.976v29.036c0 .506-.157.807-.411.903-.242.097-.593 0-1.005-.3L.6 38.59C-.2 38-.2 36.795.599 36l13.88-13.723c.412-.398.763-.494 1.005-.373ZM32.994 44.759h10.25c1.21 0 2.02.795 2.02 1.795v10.94c0 1.193.8 1.988 1.804 1.988h5.434c1.004 0 1.403.59.605 1.193L39.432 74.398c-.411.397-.907.602-1.416.602a2.001 2.001 0 0 1-1.404-.602L22.938 60.675c-.81-.603-.411-1.193.593-1.193h5.833c1.016 0 1.815-.795 1.815-1.988v-10.94c0-1 .81-1.795 1.815-1.795Z" fill="#ED1C24"/></symbol><symbol id="up" viewBox="0 0 53 77" fill="none"><path d="m50.53 44.146-25.46-5.762c-7.588-1.717-12.349-9.261-10.632-16.85 1.718-7.59 9.262-12.348 16.85-10.632 7.589 1.718 12.349 9.262 10.632 16.85a14.04 14.04 0 0 1-6.237 8.81l-.01.008a.353.353 0 0 0 .12.63l11.328 2.56c.27.062.549-.042.715-.26a24.583 24.583 0 0 0 4.994-14.853C52.83 11.526 42.58.802 29.648.041a28.033 28.033 0 0 0-17.63 5.05C-.73 14.015-3.827 31.584 5.098 44.331l22.65 32.35a.53.53 0 0 0 .857-.003l22.244-31.723a.528.528 0 0 0-.318-.81Z" fill="#FABC26"/></symbol><symbol id="truck" viewBox="0 0 17 12"><path d="M11.733 10.286c0-.057-.019-.134-.019-.19 0-.058 0-.134.019-.191H5.981c0 .057.019.133.019.19 0 .057 0 .133-.02.19h5.753Z"/><path d="m16.324 6.057-1.067-2.724a.77.77 0 0 0-.686-.476h-3.047a.561.561 0 0 0-.572.572v3.428c0 .114-.076.19-.19.19H1.809a.561.561 0 0 0-.571.572v2.095c0 .324.247.572.571.572h.781c0-.057-.019-.134-.019-.19 0-.058 0-.134.02-.191h-.782c-.114 0-.19-.077-.19-.19V7.618c0-.114.076-.19.19-.19h8.953a.561.561 0 0 0 .571-.572V3.429c0-.115.076-.19.19-.19h3.048c.134 0 .286.113.343.228l1.067 2.724c.076.171.133.476.133.666v2.857c0 .115-.076.19-.19.19h-.781c0 .058.019.134.019.191 0 .057 0 .133-.02.19h.782a.561.561 0 0 0 .571-.57V6.856c-.019-.228-.076-.59-.171-.8Z"/><path d="M13.429 12a1.91 1.91 0 0 1-1.905-1.905 1.91 1.91 0 0 1 1.905-1.905 1.91 1.91 0 0 1 1.904 1.905A1.91 1.91 0 0 1 13.43 12Zm0-3.429c-.838 0-1.524.686-1.524 1.524s.686 1.524 1.524 1.524 1.523-.686 1.523-1.524-.685-1.524-1.523-1.524ZM4.286 12a1.91 1.91 0 0 1-1.905-1.905A1.91 1.91 0 0 1 4.286 8.19a1.91 1.91 0 0 1 1.905 1.905A1.91 1.91 0 0 1 4.286 12Zm0-3.429c-.838 0-1.524.686-1.524 1.524s.686 1.524 1.524 1.524 1.524-.686 1.524-1.524-.686-1.524-1.524-1.524Z"/><path d="M4.286 9.333c.419 0 .762.343.762.762a.764.764 0 0 1-.762.762.764.764 0 0 1-.762-.762c0-.419.343-.762.762-.762Zm0-.38c-.629 0-1.143.514-1.143 1.142 0 .628.514 1.143 1.143 1.143.628 0 1.142-.514 1.142-1.143 0-.628-.514-1.143-1.142-1.143ZM13.429 9.333c.419 0 .761.343.761.762a.764.764 0 0 1-.761.762.764.764 0 0 1-.762-.762c0-.419.343-.762.762-.762Zm0-.38c-.629 0-1.143.514-1.143 1.142 0 .628.514 1.143 1.143 1.143.628 0 1.142-.514 1.142-1.143 0-.628-.514-1.143-1.142-1.143ZM10.762 7.429H1.809a.561.561 0 0 1-.571-.572V.571c0-.323.247-.571.571-.571h8.953c.323 0 .571.248.571.571v6.286a.561.561 0 0 1-.571.572ZM1.809.38c-.114 0-.19.076-.19.19v6.286c0 .114.076.19.19.19h8.953c.114 0 .19-.076.19-.19V.571c0-.114-.076-.19-.19-.19H1.809ZM14.952 6.666h-2.476a.561.561 0 0 1-.571-.571V4.381c0-.324.247-.572.571-.572H14c.286 0 .59.21.705.477l.685 1.77a.458.458 0 0 1-.038.42.506.506 0 0 1-.4.19ZM12.476 4.19c-.114 0-.19.076-.19.19v1.715c0 .114.076.19.19.19h2.476c.039 0 .057-.018.077-.018 0-.02.019-.039 0-.077l-.686-1.771c-.057-.114-.21-.229-.343-.229h-1.524ZM2.571 10.952H.191c-.115 0-.191-.076-.191-.19 0-.115.076-.19.19-.19h2.381c.115 0 .191.076.191.19s-.076.19-.19.19Z"/><path d="M5.429 4.476H.57c-.114 0-.19-.076-.19-.19 0-.115.076-.191.19-.191H5.43c.114 0 .19.076.19.19 0 .115-.076.19-.19.19ZM6.952 3.714H3.428c-.114 0-.19-.076-.19-.19 0-.115.076-.19.19-.19h3.524c.115 0 .19.075.19.19 0 .114-.075.19-.19.19ZM3.333 11.524H1.905c-.114 0-.19-.077-.19-.19 0-.115.076-.191.19-.191h1.428c.115 0 .191.076.191.19s-.076.19-.19.19ZM11.238 11.333h-1.143c-.114 0-.19-.076-.19-.19 0-.115.076-.191.19-.191h1.143c.114 0 .19.076.19.19 0 .115-.076.191-.19.191Z"/></symbol></defs></svg>