<svg aria-hidden="true" style="position: absolute; width: 0; height: 0; overflow: hidden;" version="1.1" xmlns="http://www.w3.org/2000/svg" xmlns:xlink="http://www.w3.org/1999/xlink">
<defs>
<symbol id="icon-user" viewBox="0 0 18 18">
<path d="M9 9C10.6575 9 12 7.6575 12 6C12 4.3425 10.6575 3 9 3C7.3425 3 6 4.3425 6 6C6 7.6575 7.3425 9 9 9ZM9 10.5C6.9975 10.5 3 11.505 3 13.5V14.25C3 14.6625 3.3375 15 3.75 15H14.25C14.6625 15 15 14.6625 15 14.25V13.5C15 11.505 11.0025 10.5 9 10.5Z" />
</symbol>
<symbol id="icon-tel" viewBox="0 0 18 18">
<path d="M13.996 11.1226L12.1579 10.9127C11.7164 10.862 11.2822 11.014 10.971 11.3252L9.63945 12.6568C7.59144 11.6147 5.91251 9.94296 4.87041 7.8877L6.20922 6.54888C6.5204 6.2377 6.67237 5.80349 6.62171 5.36205L6.41185 3.53836C6.325 2.80745 5.70988 2.25745 4.97173 2.25745H3.71976C2.902 2.25745 2.22175 2.93771 2.2724 3.75547C2.65595 9.93572 7.59868 14.8712 13.7717 15.2548C14.5894 15.3054 15.2697 14.6252 15.2697 13.8074V12.5555C15.2769 11.8245 14.7269 11.2094 13.996 11.1226Z" />
</symbol>
<symbol id="icon-mail" viewBox="0 0 18 18">
<path d="M15 3H3C2.175 3 1.5075 3.675 1.5075 4.5L1.5 13.5C1.5 14.325 2.175 15 3 15H15C15.825 15 16.5 14.325 16.5 13.5V4.5C16.5 3.675 15.825 3 15 3ZM14.7 6.1875L9.3975 9.5025C9.1575 9.6525 8.8425 9.6525 8.6025 9.5025L3.3 6.1875C3.1125 6.0675 3 5.865 3 5.6475C3 5.145 3.5475 4.845 3.975 5.1075L9 8.25L14.025 5.1075C14.4525 4.845 15 5.145 15 5.6475C15 5.865 14.8875 6.0675 14.7 6.1875Z" /></symbol>
<symbol id="icon-plane" viewBox="0 0 24 24">
<path d="M24 0L0 13.5L7.66994 16.3407L19.5 5.25002L10.5017 17.3896L10.509 17.3923L10.5 17.3896V24.0001L14.8013 18.982L20.2501 21.0001L24 0Z" />
</symbol>
<symbol id="icon-checked" viewBox="0 0 16 15">
<path d="M0 2C0 0.89543 0.895431 0 2 0H14C15.1046 0 16 0.895431 16 2V13C16 14.1046 15.1046 15 14 15H2C0.895431 15 0 14.1046 0 13V2Z" />
<path d="M3.95703 7.75166L3.88825 7.68604L3.81923 7.75141L2.93123 8.59258L2.85486 8.66492L2.93097 8.73753L6.42671 12.0724L6.49574 12.1382L6.56476 12.0724L14.069 4.91352L14.1449 4.84116L14.069 4.76881L13.1873 3.92764L13.1183 3.86183L13.0493 3.92761L6.49577 10.1735L3.95703 7.75166Z" fill="white" stroke="white" stroke-width="0.2"/>
</symbol>
<symbol id="icon-checkbox" viewBox="0 0 16 15">
<path d="M14.2222 1.66667V13.3333H1.77778V1.66667H14.2222ZM14.2222 0H1.77778C0.8 0 0 0.75 0 1.66667V13.3333C0 14.25 0.8 15 1.77778 15H14.2222C15.2 15 16 14.25 16 13.3333V1.66667C16 0.75 15.2 0 14.2222 0Z" />
</symbol>
<symbol id="mobile-menu" viewBox="0 0 24 16">
<path d="M0 2.66667V0H24V2.66667H0ZM0 9.33333H24V6.66667H0V9.33333ZM0 16H24V13.3333H0V16Z"/>
</symbol>
<symbol id="close-menu" viewBox="0 0 21 21">
<path d="M19.6667 2.88L17.7867 1L10.3333 8.45334L2.88 1L1 2.88L8.45334 10.3333L1 17.7867L2.88 19.6667L10.3333 12.2133L17.7867 19.6667L19.6667 17.7867L12.2133 10.3333L19.6667 2.88Z" />
</symbol>
<symbol id="car" viewBox="0 0 36 31">
<path d="M7.77723 1.83795C6.56523 2.4796 5.13935 4.761 3.00054 9.4664C0.22008 15.7403 0.00619834 16.6671 0.00619834 22.727C-0.0650955 29.8564 0.433961 30.8545 3.85607 30.8545C6.63653 30.8545 7.77723 29.7138 7.77723 27.1473V25.0797L17.9722 25.2936L28.096 25.5075L28.4524 28.0028C28.8089 30.712 30.3774 31.4249 33.8708 30.5694C35.5105 30.1416 35.5818 29.9277 35.5818 23.3687C35.5818 17.2374 35.2967 15.9541 33.0152 10.1793C29.4506 1.19631 28.9515 0.911134 18.1861 0.911134C12.6965 0.911134 8.91793 1.2676 7.77723 1.83795ZM27.8108 4.97488C28.8089 6.18688 31.3042 11.2487 31.3042 11.9617C31.3042 12.1756 25.1729 12.3181 17.6871 12.3181C10.2012 12.3181 4.21254 12.1043 4.35512 11.7478C4.49771 11.4626 5.21065 9.96545 5.92359 8.39699C8.0624 3.69159 7.84852 3.76289 17.7584 3.76289C25.5294 3.76289 26.9553 3.97677 27.8108 4.97488ZM9.2031 19.4475C9.2031 20.6595 8.70405 20.8734 6.42264 20.8734C4.85418 20.8734 3.35701 20.5169 3.14313 20.1605C2.3589 18.8059 3.57089 18.0217 6.42264 18.0217C8.70405 18.0217 9.2031 18.2355 9.2031 19.4475ZM32.3736 19.4475C32.3736 20.1605 31.4468 20.5882 29.3793 20.7308C26.6701 20.9447 26.3136 20.8021 26.3136 19.4475C26.3136 18.093 26.6701 17.9504 29.3793 18.1642C31.4468 18.3068 32.3736 18.7346 32.3736 19.4475ZM23.3193 19.5901C22.9628 20.5882 14.9066 21.3012 12.9817 20.5882C10.629 19.6614 13.2669 18.7346 18.1861 18.7346C22.1786 18.7346 23.5332 18.9485 23.3193 19.5901Z"/>
</symbol>
<symbol id="glass" viewBox="0 0 29 28">
<path d="M4.7834 27.2653L12.6655 19.6138L8.58995 15.6545L0.70782 23.3116C0.0609934 23.94 0.0609934 24.9743 0.70782 25.6026L2.41933 27.2653C3.07189 27.8937 4.1423 27.8937 4.7834 27.2653Z"/>
<path d="M10.347 15.8273L12.4821 17.9014L14.9149 15.5381C18.2292 17.7735 22.8199 17.4621 25.7736 14.5928C29.0878 11.3732 29.0878 6.14056 25.7736 2.91535C22.4593 -0.309851 17.0729 -0.304291 13.7529 2.91535C10.7992 5.78467 10.4787 10.2444 12.7798 13.464L10.347 15.8273ZM15.4243 4.51683C17.8285 2.18134 21.7266 2.18134 24.125 4.51683C26.5292 6.85233 26.5292 10.6392 24.125 12.9691C21.7209 15.3046 17.8228 15.3046 15.4243 12.9691C13.0202 10.6392 13.0202 6.85233 15.4243 4.51683Z"/>
</symbol>
<symbol id="favorite" viewBox="0 0 13 18" fill="none">
<path d="M6.60476 14.773L6.5 14.7247L6.39524 14.773L0.25 17.6093V2C0.25 1.53014 0.423491 1.08291 0.727143 0.755899C1.03021 0.429514 1.43713 0.25 1.85714 0.25H11.1429C12.0099 0.25 12.75 1.01114 12.75 2V17.6093L6.60476 14.773Z" stroke="#943D18" stroke-width="0.5"/>
</symbol>
<symbol id="cart" viewBox="0 0 12 11" >
<path d="M0.0832331 0.0544538C-0.0349984 0.15298 -0.0262405 0.321568 0.102938 0.417906C0.13797 0.44199 0.30437 0.485781 0.556159 0.533949C0.772917 0.575549 0.989675 0.625906 1.03784 0.645611C1.25241 0.735379 1.44509 0.945569 1.51296 1.1689C1.5458 1.2718 2.7741 8.38321 2.7741 8.46422C2.7741 8.49049 2.72593 8.52772 2.63616 8.57588C2.20702 8.79702 1.9421 9.23273 1.9421 9.71879C1.9421 10.0801 2.05595 10.3559 2.31431 10.6143C2.78723 11.0872 3.4813 11.1288 4.01772 10.7194C4.5213 10.3362 4.65047 9.57647 4.30673 9.04443L4.21915 8.90868H5.95978C6.91658 8.90868 7.70041 8.91525 7.70041 8.92182C7.70041 8.92839 7.67195 8.97437 7.63911 9.02473C7.453 9.30498 7.38513 9.70346 7.47052 10.0363C7.5778 10.461 7.91936 10.8179 8.3463 10.9515C8.56087 11.0171 8.90024 11.015 9.10167 10.9471C9.51329 10.8048 9.80668 10.5092 9.94681 10.091C10.0037 9.92241 10.0037 9.51517 9.94681 9.34658C9.87675 9.13639 9.77384 8.9678 9.62715 8.81892C9.47169 8.66346 9.32062 8.56713 9.10167 8.4883L8.95936 8.43795L6.11304 8.427L3.26673 8.41605L3.14193 7.69353C3.07405 7.29504 3.01713 6.9491 3.01713 6.92064L3.01494 6.87247H6.01452C8.07919 6.87247 9.04913 6.86591 9.12795 6.84839C9.47388 6.77833 9.84609 6.48932 10.0059 6.17184C10.0607 6.06237 10.2796 5.39896 10.6474 4.21445C10.9518 3.22919 11.2036 2.40376 11.2036 2.38186C11.2036 2.31618 11.1576 2.23298 11.0963 2.19357C11.0415 2.15635 10.8007 2.15416 6.61224 2.14759C4.17536 2.1454 2.18294 2.13664 2.18294 2.12788C2.18294 2.08191 2.02311 1.19298 1.99464 1.08132C1.90487 0.731001 1.63557 0.402579 1.30496 0.240559C1.15389 0.166117 1.05098 0.137653 0.731317 0.0741587C0.256202 -0.0199881 0.173002 -0.0221777 0.0832331 0.0544538ZM10.6124 2.66868C10.6124 2.69934 9.63591 5.82153 9.60087 5.90254C9.54833 6.02515 9.42791 6.16965 9.31405 6.24409C9.07978 6.39955 9.29435 6.39079 5.93788 6.38641L2.9186 6.37984L2.6077 4.57353C2.43473 3.57951 2.29022 2.74094 2.28365 2.7059L2.27271 2.64679H6.44146C9.29435 2.64679 10.6124 2.65336 10.6124 2.66868ZM3.51195 8.97875C3.86007 9.10574 4.07464 9.49765 4.0002 9.86548C3.96517 10.0275 3.91043 10.137 3.79877 10.2574C3.63456 10.4369 3.42656 10.5179 3.16382 10.5048C2.49822 10.4698 2.17856 9.64873 2.64711 9.16704C2.877 8.93277 3.19666 8.8627 3.51195 8.97875ZM8.94841 8.95685C9.32719 9.0707 9.57241 9.47138 9.49578 9.85454C9.46294 10.0275 9.40601 10.137 9.28559 10.2662C9.14108 10.4216 8.98344 10.4917 8.75136 10.5026C8.58934 10.5114 8.54336 10.5048 8.43169 10.4588C8.09671 10.3231 7.90184 10.0187 7.92374 9.66186C7.95658 9.15172 8.45359 8.81016 8.94841 8.95685Z" fill="white"/>
</symbol>
<symbol id="np" viewBox="0 0 77 75" fill="none" >
<path fill-rule="evenodd" clip-rule="evenodd" d="M60.924 22.2048C61.1539 22.1325 61.4564 22.2771 61.759 22.6747C61.759 22.6747 61.759 22.6747 75.4334 36C76.2321 36.7952 76.2321 38 75.4334 38.5903C75.4334 38.5903 75.4334 38.5903 61.759 52.1205C61.4564 52.518 61.1539 52.6144 60.924 52.494C60.694 52.3735 60.5488 52.0241 60.5488 51.518V23.0723C60.5488 22.5783 60.694 22.2771 60.924 22.2048Z" fill="#ED1C24"/>
<path fill-rule="evenodd" clip-rule="evenodd" d="M37.5322 0H38.5003L39.4321 0.385544C39.4321 0.385544 39.4321 0.385543 53.5059 14.3133C54.111 15.1084 53.9052 15.7108 52.9008 15.7108C52.9008 15.7108 52.9008 15.7108 47.068 15.7108C46.0636 15.7108 45.2649 16.506 45.2649 17.506C45.2649 17.506 45.2649 17.506 45.2649 27.8434C45.2649 28.8434 44.4541 29.6386 43.244 29.6386C43.244 29.6386 43.244 29.6386 32.9942 29.6386C31.9898 29.6386 31.179 28.8434 31.179 27.8434C31.179 27.8434 31.179 27.8434 31.179 17.506C31.179 16.506 30.3803 15.7108 29.3638 15.7108H23.1316C22.1272 15.7108 21.9215 15.1084 22.5265 14.3133C22.5265 14.3133 22.5265 14.3133 36.6125 0.385544L37.5322 0V0Z" fill="#ED1C24"/>
<path fill-rule="evenodd" clip-rule="evenodd" d="M15.4836 21.9036C15.7377 22.0241 15.8951 22.3735 15.8951 22.8795V51.9157C15.8951 52.4217 15.7377 52.7229 15.4836 52.8193C15.2416 52.9157 14.8907 52.8193 14.4792 52.5181C14.4792 52.5181 14.4792 52.5181 0.599015 38.5904C-0.199672 38 -0.199672 36.7952 0.599015 36C0.599015 36 0.599016 36 14.4792 22.2771C14.8907 21.8795 15.2416 21.7831 15.4836 21.9036Z" fill="#ED1C24"/>
<path fill-rule="evenodd" clip-rule="evenodd" d="M32.9942 44.759C32.9942 44.759 32.9942 44.759 43.244 44.759C44.4541 44.759 45.2649 45.5542 45.2649 46.5542C45.2649 46.5542 45.2649 46.5542 45.2649 57.494C45.2649 58.6867 46.0636 59.4819 47.068 59.4819H52.5015C53.5059 59.4819 53.9053 60.0723 53.1066 60.6747C53.1066 60.6747 53.1066 60.6747 39.4321 74.3976C39.0207 74.7952 38.5245 75 38.0162 75C37.5201 75 37.0118 74.7952 36.6125 74.3976C36.6125 74.3976 36.6125 74.3976 22.938 60.6747C22.1272 60.0723 22.5266 59.4819 23.531 59.4819C23.531 59.4819 23.531 59.4819 29.3638 59.4819C30.3803 59.4819 31.179 58.6867 31.179 57.494C31.179 57.494 31.179 57.494 31.179 46.5542C31.179 45.5542 31.9898 44.759 32.9942 44.759V44.759Z" fill="#ED1C24"/>
</symbol>
<symbol id="up" viewBox="0 0 53 77" fill="none" >
<path d="M50.5307 44.1456C50.5287 44.1451 25.0699 38.3839 25.0699 38.3839C17.4815 36.6666 12.7212 29.1226 14.438 21.5337C16.1557 13.9449 23.6997 9.18562 31.2881 10.9024C38.877 12.6197 43.6367 20.1636 41.9199 27.752C41.0596 31.5514 38.7387 34.6387 35.6831 36.5621C35.6831 36.5621 35.6752 36.5684 35.6724 36.5699C35.5825 36.6344 35.5244 36.7394 35.5244 36.8575C35.5244 37.023 35.6386 37.1621 35.793 37.1992C35.793 37.1992 47.1186 39.7607 47.1206 39.7607C47.3901 39.8219 47.6699 39.7179 47.8355 39.4991C50.9555 35.3706 52.8301 30.2187 52.8301 24.647C52.8301 11.5255 42.5786 0.802252 29.648 0.0406265C29.5327 0.0342515 28.832 0.00687689 28.5952 0.00350189C22.8701 -0.0863731 17.0654 1.55525 12.0176 5.09037C-0.729995 14.0161 -3.82716 31.585 5.09765 44.3321L27.7485 76.6812C27.8452 76.813 28.001 76.8985 28.1757 76.8985C28.352 76.8985 28.5082 76.8116 28.6045 76.6788C28.6045 76.6788 50.8471 44.9585 50.8491 44.9556C50.9057 44.8716 50.9395 44.7696 50.9395 44.6602C50.9395 44.4092 50.7651 44.1992 50.5307 44.1456Z" fill="#FABC26"/>
</symbol>
<symbol id="truck" viewBox="0 0 17 12" >
<path d="M11.733 10.2857C11.733 10.2286 11.714 10.1524 11.714 10.0952C11.714 10.0381 11.714 9.9619 11.733 9.90466H5.98077C5.98077 9.96174 5.99975 10.038 5.99975 10.0952C5.99975 10.1523 5.99975 10.2285 5.98077 10.2857H11.733Z" fill="black"/>
<path d="M16.3236 6.0571L15.2569 3.33326C15.1616 3.06668 14.8569 2.85718 14.5712 2.85718H11.5235C11.1997 2.85718 10.9521 3.10479 10.9521 3.42861V6.85718C10.9521 6.9715 10.8759 7.04771 10.7615 7.04771L1.80928 7.04755C1.48546 7.04755 1.23785 7.29516 1.23785 7.61898V9.71416C1.23785 10.038 1.48546 10.2856 1.80928 10.2856H2.59022C2.59022 10.2285 2.57125 10.1523 2.57125 10.0951C2.57125 10.038 2.57125 9.96177 2.59022 9.90453L1.80928 9.90469C1.69496 9.90469 1.61875 9.82848 1.61875 9.71416L1.61891 7.61898C1.61891 7.50466 1.69512 7.42845 1.80944 7.42845H10.7617C11.0855 7.42845 11.3331 7.18084 11.3331 6.85702V3.42861C11.3331 3.31429 11.4093 3.23808 11.5237 3.23808H14.5713C14.7046 3.23808 14.857 3.35239 14.9141 3.46671L15.9808 6.19055C16.057 6.36195 16.1141 6.6668 16.1141 6.85716V9.71431C16.1141 9.82863 16.0379 9.90484 15.9235 9.90484L15.1426 9.90468C15.1426 9.96176 15.1616 10.038 15.1616 10.0952C15.1616 10.1523 15.1616 10.2285 15.1426 10.2857H15.9235C16.2474 10.2857 16.495 10.0381 16.495 9.71431V6.85717C16.476 6.62853 16.4187 6.2666 16.3236 6.05709L16.3236 6.0571Z" fill="black"/>
<path d="M13.4286 12.0001C12.3809 12.0001 11.5238 11.1429 11.5238 10.0952C11.5238 9.04757 12.3809 8.19043 13.4286 8.19043C14.4763 8.19043 15.3334 9.04757 15.3334 10.0952C15.3334 11.1429 14.4763 12.0001 13.4286 12.0001ZM13.4286 8.57149C12.5905 8.57149 11.9049 9.25725 11.9049 10.0952C11.9049 10.9334 12.5906 11.619 13.4286 11.619C14.2668 11.619 14.9524 10.9332 14.9524 10.0952C14.9524 9.25708 14.2668 8.57149 13.4286 8.57149Z" fill="black"/>
<path d="M4.2858 12.0001C3.23813 12.0001 2.38098 11.1429 2.38098 10.0952C2.38098 9.04757 3.23813 8.19043 4.2858 8.19043C5.33347 8.19043 6.19062 9.04757 6.19062 10.0952C6.19062 11.1429 5.33347 12.0001 4.2858 12.0001ZM4.2858 8.57149C3.44764 8.57149 2.76204 9.25725 2.76204 10.0952C2.76204 10.9334 3.4478 11.619 4.2858 11.619C5.12396 11.619 5.80956 10.9332 5.80956 10.0952C5.80956 9.25708 5.12396 8.57149 4.2858 8.57149Z" fill="black"/>
<path d="M4.28562 9.33305C4.70464 9.33305 5.04758 9.67584 5.04758 10.095C5.04758 10.514 4.70479 10.857 4.28562 10.857C3.8666 10.857 3.52366 10.5142 3.52366 10.095C3.52366 9.67599 3.86661 9.33305 4.28562 9.33305ZM4.28562 8.95215C3.65713 8.95215 3.14276 9.46652 3.14276 10.095C3.14276 10.7235 3.65713 11.2379 4.28562 11.2379C4.91411 11.2379 5.42848 10.7235 5.42848 10.095C5.42848 9.46652 4.91411 8.95215 4.28562 8.95215Z" fill="black"/>
<path d="M13.4286 9.33305C13.8476 9.33305 14.1905 9.67584 14.1905 10.095C14.1905 10.514 13.8477 10.857 13.4286 10.857C13.0095 10.857 12.6666 10.5142 12.6666 10.095C12.6666 9.67599 13.0096 9.33305 13.4286 9.33305ZM13.4286 8.95215C12.8001 8.95215 12.2857 9.46652 12.2857 10.095C12.2857 10.7235 12.8001 11.2379 13.4286 11.2379C14.0571 11.2379 14.5714 10.7235 14.5714 10.095C14.5714 9.46652 14.0571 8.95215 13.4286 8.95215Z" fill="black"/>
<path d="M10.7619 7.42858H1.80928C1.48546 7.42858 1.23785 7.18097 1.23785 6.85715V0.571429C1.23785 0.247608 1.48546 0 1.80928 0H10.7615C11.0854 0 11.333 0.247608 11.333 0.571429V6.85715C11.3331 7.18097 11.0855 7.42858 10.7617 7.42858H10.7619ZM1.80928 0.380817C1.69496 0.380817 1.61875 0.457029 1.61875 0.571347V6.85707C1.61875 6.97139 1.69496 7.0476 1.80928 7.0476H10.7615C10.8758 7.0476 10.9521 6.97139 10.9521 6.85707V0.571347C10.9521 0.457029 10.8758 0.380817 10.7615 0.380817H1.80928Z" fill="black"/>
<path d="M14.9522 6.66647H12.4762C12.1523 6.66647 11.9047 6.41886 11.9047 6.09504V4.38076C11.9047 4.05693 12.1523 3.80933 12.4762 3.80933H13.9999C14.2856 3.80933 14.5903 4.01883 14.7046 4.28557L15.3904 6.05692C15.4475 6.20934 15.4285 6.36161 15.3523 6.47594C15.2571 6.59026 15.1238 6.66647 14.9523 6.66647H14.9522ZM12.4762 4.19022C12.3618 4.19022 12.2856 4.26644 12.2856 4.38076V6.09504C12.2856 6.20936 12.3618 6.28557 12.4762 6.28557H14.9524C14.9905 6.28557 15.0095 6.2666 15.0286 6.2666C15.0286 6.24763 15.0476 6.22849 15.0286 6.19039L14.3429 4.41904C14.2856 4.30456 14.1332 4.19024 13.9999 4.19024L12.4762 4.19022Z" fill="black"/>
<path d="M2.57143 10.9522H0.190531C0.0762123 10.9522 0 10.876 0 10.7617C0 10.6474 0.0762123 10.5712 0.190531 10.5712L2.57143 10.5713C2.68575 10.5713 2.76196 10.6475 2.76196 10.7619C2.76196 10.876 2.68575 10.9522 2.57143 10.9522Z" fill="black"/>
<path d="M5.4286 4.47591H0.571451C0.457133 4.47591 0.38092 4.3997 0.38092 4.28538C0.38092 4.17106 0.457133 4.09485 0.571451 4.09485L5.4286 4.09501C5.54291 4.09501 5.61913 4.17122 5.61913 4.28554C5.61913 4.3997 5.54291 4.47591 5.4286 4.47591Z" fill="black"/>
<path d="M6.9522 3.71431H3.42845C3.31413 3.71431 3.23792 3.6381 3.23792 3.52378C3.23792 3.40946 3.31413 3.33325 3.42845 3.33325H6.9522C7.06652 3.33325 7.14273 3.40946 7.14273 3.52378C7.14273 3.6381 7.06652 3.71431 6.9522 3.71431Z" fill="black"/>
<path d="M3.33346 11.5236H1.90489C1.79057 11.5236 1.71436 11.4474 1.71436 11.3331C1.71436 11.2188 1.79057 11.1426 1.90489 11.1426L3.33346 11.1427C3.44778 11.1427 3.52399 11.2189 3.52399 11.3333C3.52383 11.4474 3.44762 11.5236 3.33346 11.5236Z" fill="black"/>
<path d="M11.2381 11.3331H10.0952C9.98088 11.3331 9.90466 11.2569 9.90466 11.1426C9.90466 11.0282 9.98088 10.952 10.0952 10.952H11.2381C11.3524 10.952 11.4286 11.0282 11.4286 11.1426C11.4286 11.2569 11.3524 11.3331 11.2381 11.3331Z" fill="black"/>
</symbol>
<symbol id="car-glass" viewBox="0 0 24 24">
<path d="M12.719 0.069c-2.494 0.269-4.794 1.194-6.875 2.763-0.619 0.469-1.944 1.794-2.419 2.419-1.406 1.862-2.3 3.969-2.65 6.25-0.156 0.994-0.156 3.006 0 4 0.363 2.35 1.319 4.556 2.769 6.4 0.45 0.569 1.613 1.731 2.181 2.175 2.869 2.269 6.575 3.281 10.181 2.8 2.313-0.313 4.45-1.188 6.288-2.569l0.475-0.363 0.481 0.494-0.275 0.288-0.281 0.288 7.063 6.988 1.725-1.725-3.3-3.288c-1.819-1.806-3.406-3.375-3.538-3.488l-0.238-0.206-0.556 0.544-0.225-0.219-0.225-0.225 0.319-0.3c0.85-0.794 1.95-2.325 2.569-3.556 0.962-1.938 1.394-3.825 1.387-6.069-0.006-3.281-1.044-6.138-3.15-8.675-2.050-2.469-5.019-4.131-8.269-4.638-0.769-0.125-2.681-0.169-3.438-0.087zM16 0.975c2.531 0.375 4.875 1.506 6.775 3.281 2.094 1.95 3.413 4.475 3.881 7.431 0.144 0.875 0.144 2.725 0.006 3.619-0.438 2.825-1.619 5.169-3.594 7.138-1.994 1.988-4.281 3.15-7.075 3.594-0.894 0.144-2.856 0.144-3.738 0-2.238-0.356-4.131-1.163-5.881-2.506-2.575-1.975-4.263-4.85-4.787-8.162-0.144-0.881-0.137-2.844 0-3.737 0.6-3.8 2.775-7.044 6.044-9.019 1.631-0.981 3.775-1.644 5.713-1.762 0.644-0.037 1.969 0.025 2.656 0.125z"></path>
<path d="M9.831 7.25c-1.438 0.219-2.6 1.731-3.025 3.919-0.069 0.363-0.088 0.4-0.338 0.544-0.625 0.369-1.213 1.219-1.45 2.106-0.144 0.537-0.144 1.694 0 2.231 0.138 0.519 0.431 1.1 0.737 1.462l0.244 0.294v2.319h2.938v-1.438h10.375v1.438h2.938v-2.319l0.256-0.319c0.337-0.431 0.525-0.813 0.688-1.406 0.169-0.619 0.181-1.6 0.025-2.238-0.212-0.863-0.762-1.681-1.406-2.094-0.175-0.113-0.325-0.262-0.344-0.338-0.012-0.069-0.056-0.294-0.094-0.494-0.325-1.681-1.306-3.081-2.488-3.556l-0.356-0.144-4.188-0.006c-2.306-0.006-4.331 0.013-4.512 0.037zM18.738 8.281c0.644 0.3 1.25 1.119 1.575 2.144 0.25 0.769 0.25 0.775-0.075 0.75-0.269-0.019-0.269-0.019-0.313-0.313-0.169-1.213-1.506-1.938-2.613-1.419-0.581 0.275-0.931 0.719-1.069 1.369l-0.069 0.313h-3.856c-2.125 0-4.037 0.019-4.244 0.037l-0.388 0.044 0.131-0.463c0.206-0.75 0.631-1.563 1.044-1.981 0.65-0.675 0.275-0.625 5.231-0.631l4.313-0.006 0.331 0.156zM18.819 10.094c0.269 0.175 0.469 0.475 0.525 0.794l0.044 0.238h-1.288c-1.25 0-1.288-0.006-1.288-0.125 0-0.069 0.044-0.231 0.094-0.363 0.319-0.75 1.212-1.006 1.913-0.544zM8.725 13.906c0.306 0.181 0.588 0.675 0.588 1.025-0.006 0.45-0.369 0.975-0.781 1.131-0.406 0.156-0.969 0.056-1.306-0.244-0.2-0.181-0.35-0.55-0.35-0.887 0-0.981 0.987-1.531 1.85-1.025zM20.506 13.756c0.738 0.25 1.069 1.037 0.738 1.731-0.306 0.631-1.175 0.85-1.781 0.438-0.481-0.331-0.663-1.037-0.387-1.544 0.169-0.319 0.356-0.475 0.712-0.6 0.3-0.106 0.45-0.113 0.719-0.025zM17.769 14.306c0.2 0.081 0.256 0.244 0.137 0.419l-0.094 0.15h-3.669c-3.325 0-3.675-0.012-3.781-0.106-0.15-0.137-0.144-0.306 0.025-0.419 0.125-0.088 0.575-0.1 3.688-0.1 2.013 0 3.606 0.025 3.694 0.056zM17.95 15.531c0.056 0.131 0.050 0.175-0.044 0.281-0.113 0.125-0.188 0.125-3.787 0.125-3.256 0-3.681-0.012-3.769-0.1-0.119-0.113-0.131-0.281-0.025-0.387 0.056-0.056 0.988-0.075 3.813-0.075h3.737l0.075 0.156z"></path>
</symbol>
<symbol id="search" viewBox="0 0 40 40">
<path d="M11.438 0.037c-3.213 0.394-5.638 1.538-7.75 3.65-1.9 1.9-3.069 4.181-3.544 6.906-0.15 0.869-0.15 2.944 0 3.813 0.475 2.725 1.644 5.006 3.544 6.906s4.181 3.069 6.906 3.544c0.869 0.15 2.944 0.15 3.813 0 1.719-0.3 3.313-0.887 4.581-1.688l0.4-0.25 4.319 4.319c4.663 4.65 4.556 4.556 5.381 4.706 1.656 0.306 3.163-1.2 2.856-2.856-0.15-0.825-0.056-0.719-4.706-5.381l-4.319-4.319 0.25-0.4c0.8-1.269 1.387-2.863 1.688-4.581 0.15-0.869 0.15-2.944 0-3.813-0.475-2.725-1.644-5.006-3.544-6.906-1.887-1.894-4.213-3.087-6.875-3.531-0.569-0.1-2.544-0.175-3-0.119zM14.131 1.375c4.513 0.681 8.181 4.006 9.269 8.406 0.212 0.863 0.281 1.4 0.325 2.394 0.137 3.225-1.288 6.537-3.756 8.713-2.825 2.494-6.544 3.413-10.188 2.512-1.994-0.494-3.75-1.494-5.219-2.962-1.731-1.731-2.8-3.856-3.194-6.344-0.1-0.644-0.1-2.544 0-3.188 0.394-2.488 1.462-4.612 3.194-6.344 1.925-1.925 4.225-2.987 7.094-3.275 0.412-0.044 1.975 0.012 2.475 0.087zM23.087 21.306l0.869 0.875-0.431 0.456c-0.238 0.256-0.637 0.656-0.887 0.894l-0.456 0.431-0.881-0.881-0.875-0.881 0.863-0.875c0.481-0.481 0.881-0.881 0.9-0.881 0.019-0.006 0.425 0.387 0.9 0.863zM30.55 28.837c0.144 0.206 0.169 0.313 0.169 0.663 0 0.337-0.031 0.456-0.156 0.644-0.331 0.488-0.875 0.694-1.438 0.544-0.256-0.069-0.563-0.356-3.169-2.95l-2.881-2.875 0.881-0.894 0.887-0.894 2.769 2.762c1.519 1.512 2.844 2.869 2.938 3z"></path>
<path d="M11.463 2.563c-2.256 0.237-4.4 1.263-6.019 2.881-2.694 2.694-3.619 6.644-2.4 10.244 0.5 1.481 1.3 2.762 2.4 3.869 2.694 2.694 6.644 3.619 10.244 2.4 1.481-0.5 2.762-1.3 3.869-2.4 2.694-2.694 3.619-6.644 2.4-10.244-1-2.963-3.306-5.269-6.269-6.269-1.375-0.469-2.813-0.631-4.225-0.481zM13.65 3.844c1.931 0.256 3.606 1.088 5.013 2.494 3.438 3.438 3.438 8.887 0 12.325s-8.887 3.438-12.325 0c-3.438-3.438-3.438-8.887 0-12.325 1.969-1.963 4.588-2.856 7.313-2.494z"></path>
<path d="M12.275 5.056c-0.2 0.088-0.4 0.375-0.4 0.575 0 0.237 0.275 0.544 0.519 0.581 0.113 0.019 0.475 0.063 0.806 0.094 1.819 0.2 3.444 1.2 4.531 2.787 0.075 0.106 0.256 0.444 0.413 0.75 0.156 0.313 0.337 0.613 0.4 0.662 0.294 0.256 0.775 0.15 0.925-0.213 0.106-0.262 0.050-0.506-0.269-1.137-1.194-2.381-3.625-3.994-6.231-4.125-0.306-0.019-0.625-0.006-0.694 0.025z"></path>
<path d="M19.15 11.938c-0.2 0.081-0.4 0.369-0.4 0.569 0 0.25 0.288 0.55 0.569 0.594 0.194 0.031 0.262 0.006 0.438-0.15s0.212-0.231 0.212-0.45c0-0.219-0.038-0.294-0.206-0.444-0.206-0.181-0.375-0.219-0.613-0.119z"></path>
</symbol>
</svg>
</defs>
</svg>