<svg aria-hidden="true" style="position: absolute; width: 0; height: 0; overflow: hidden;" version="1.1" xmlns="http://www.w3.org/2000/svg" xmlns:xlink="http://www.w3.org/1999/xlink">
<defs>
<symbol id="icon-user" viewBox="0 0 18 18">
<path d="M9 9C10.6575 9 12 7.6575 12 6C12 4.3425 10.6575 3 9 3C7.3425 3 6 4.3425 6 6C6 7.6575 7.3425 9 9 9ZM9 10.5C6.9975 10.5 3 11.505 3 13.5V14.25C3 14.6625 3.3375 15 3.75 15H14.25C14.6625 15 15 14.6625 15 14.25V13.5C15 11.505 11.0025 10.5 9 10.5Z" />
</symbol>
<symbol id="icon-tel" viewBox="0 0 18 18">
<path d="M13.996 11.1226L12.1579 10.9127C11.7164 10.862 11.2822 11.014 10.971 11.3252L9.63945 12.6568C7.59144 11.6147 5.91251 9.94296 4.87041 7.8877L6.20922 6.54888C6.5204 6.2377 6.67237 5.80349 6.62171 5.36205L6.41185 3.53836C6.325 2.80745 5.70988 2.25745 4.97173 2.25745H3.71976C2.902 2.25745 2.22175 2.93771 2.2724 3.75547C2.65595 9.93572 7.59868 14.8712 13.7717 15.2548C14.5894 15.3054 15.2697 14.6252 15.2697 13.8074V12.5555C15.2769 11.8245 14.7269 11.2094 13.996 11.1226Z" />
</symbol>
<symbol id="icon-mail" viewBox="0 0 18 18">
<path d="M15 3H3C2.175 3 1.5075 3.675 1.5075 4.5L1.5 13.5C1.5 14.325 2.175 15 3 15H15C15.825 15 16.5 14.325 16.5 13.5V4.5C16.5 3.675 15.825 3 15 3ZM14.7 6.1875L9.3975 9.5025C9.1575 9.6525 8.8425 9.6525 8.6025 9.5025L3.3 6.1875C3.1125 6.0675 3 5.865 3 5.6475C3 5.145 3.5475 4.845 3.975 5.1075L9 8.25L14.025 5.1075C14.4525 4.845 15 5.145 15 5.6475C15 5.865 14.8875 6.0675 14.7 6.1875Z" /></symbol>
<symbol id="icon-plane" viewBox="0 0 24 24">
<path d="M24 0L0 13.5L7.66994 16.3407L19.5 5.25002L10.5017 17.3896L10.509 17.3923L10.5 17.3896V24.0001L14.8013 18.982L20.2501 21.0001L24 0Z" />
</symbol>
<symbol id="icon-checked" viewBox="0 0 16 15">
<path d="M0 2C0 0.89543 0.895431 0 2 0H14C15.1046 0 16 0.895431 16 2V13C16 14.1046 15.1046 15 14 15H2C0.895431 15 0 14.1046 0 13V2Z" />
<path d="M3.95703 7.75166L3.88825 7.68604L3.81923 7.75141L2.93123 8.59258L2.85486 8.66492L2.93097 8.73753L6.42671 12.0724L6.49574 12.1382L6.56476 12.0724L14.069 4.91352L14.1449 4.84116L14.069 4.76881L13.1873 3.92764L13.1183 3.86183L13.0493 3.92761L6.49577 10.1735L3.95703 7.75166Z" fill="white" stroke="white" stroke-width="0.2"/>
</symbol>
<symbol id="icon-checkbox" viewBox="0 0 16 15">
<path d="M14.2222 1.66667V13.3333H1.77778V1.66667H14.2222ZM14.2222 0H1.77778C0.8 0 0 0.75 0 1.66667V13.3333C0 14.25 0.8 15 1.77778 15H14.2222C15.2 15 16 14.25 16 13.3333V1.66667C16 0.75 15.2 0 14.2222 0Z" />
</symbol>
<symbol id="mobile-menu" viewBox="0 0 24 16">
<path d="M0 2.66667V0H24V2.66667H0ZM0 9.33333H24V6.66667H0V9.33333ZM0 16H24V13.3333H0V16Z"/>
</symbol>
<symbol id="close-menu" viewBox="0 0 21 21">
<path d="M19.6667 2.88L17.7867 1L10.3333 8.45334L2.88 1L1 2.88L8.45334 10.3333L1 17.7867L2.88 19.6667L10.3333 12.2133L17.7867 19.6667L19.6667 17.7867L12.2133 10.3333L19.6667 2.88Z" />
</symbol>
<symbol id="car" viewBox="0 0 36 31">
<path d="M7.77723 1.83795C6.56523 2.4796 5.13935 4.761 3.00054 9.4664C0.22008 15.7403 0.00619834 16.6671 0.00619834 22.727C-0.0650955 29.8564 0.433961 30.8545 3.85607 30.8545C6.63653 30.8545 7.77723 29.7138 7.77723 27.1473V25.0797L17.9722 25.2936L28.096 25.5075L28.4524 28.0028C28.8089 30.712 30.3774 31.4249 33.8708 30.5694C35.5105 30.1416 35.5818 29.9277 35.5818 23.3687C35.5818 17.2374 35.2967 15.9541 33.0152 10.1793C29.4506 1.19631 28.9515 0.911134 18.1861 0.911134C12.6965 0.911134 8.91793 1.2676 7.77723 1.83795ZM27.8108 4.97488C28.8089 6.18688 31.3042 11.2487 31.3042 11.9617C31.3042 12.1756 25.1729 12.3181 17.6871 12.3181C10.2012 12.3181 4.21254 12.1043 4.35512 11.7478C4.49771 11.4626 5.21065 9.96545 5.92359 8.39699C8.0624 3.69159 7.84852 3.76289 17.7584 3.76289C25.5294 3.76289 26.9553 3.97677 27.8108 4.97488ZM9.2031 19.4475C9.2031 20.6595 8.70405 20.8734 6.42264 20.8734C4.85418 20.8734 3.35701 20.5169 3.14313 20.1605C2.3589 18.8059 3.57089 18.0217 6.42264 18.0217C8.70405 18.0217 9.2031 18.2355 9.2031 19.4475ZM32.3736 19.4475C32.3736 20.1605 31.4468 20.5882 29.3793 20.7308C26.6701 20.9447 26.3136 20.8021 26.3136 19.4475C26.3136 18.093 26.6701 17.9504 29.3793 18.1642C31.4468 18.3068 32.3736 18.7346 32.3736 19.4475ZM23.3193 19.5901C22.9628 20.5882 14.9066 21.3012 12.9817 20.5882C10.629 19.6614 13.2669 18.7346 18.1861 18.7346C22.1786 18.7346 23.5332 18.9485 23.3193 19.5901Z" fill="white"/>
</symbol>
</defs>
</svg>